<svg width="44" height="44" viewBox="0 0 44 44" fill="none" xmlns="http://www.w3.org/2000/svg">
<path d="M33.9141 17.4351C32.5392 16.9616 31.3255 16.1102 30.4124 14.9785C29.406 13.7176 28.1245 12.7036 26.666 12.014C25.2075 11.3245 23.6105 10.9777 21.9974 11.0001C19.8274 10.8465 17.6791 11.5158 15.9804 12.8747C14.2817 14.2337 13.1571 16.1827 12.8307 18.3335C13.4736 17.2578 14.4412 16.4137 15.5943 15.9229C16.7473 15.432 18.0264 15.3196 19.2474 15.6018C20.62 16.0891 21.8316 16.9455 22.7491 18.0768C23.761 19.3277 25.0449 20.3312 26.5031 21.011C27.9613 21.6909 29.5554 22.0292 31.1641 22.0001C33.3341 22.1538 35.4823 21.4845 37.1811 20.1256C38.8798 18.7666 40.0043 16.8176 40.3307 14.6668C39.6995 15.7554 38.735 16.6122 37.5796 17.1107C36.4242 17.6091 35.1391 17.7229 33.9141 17.4351ZM10.0807 26.5651C11.4556 27.0387 12.6692 27.8901 13.5824 29.0218C14.5888 30.2827 15.8703 31.2967 17.3288 31.9863C18.7873 32.6758 20.3842 33.0226 21.9974 33.0002C24.1674 33.1538 26.3157 32.4845 28.0144 31.1256C29.7131 29.7666 30.8377 27.8176 31.1641 25.6668C30.5212 26.7425 29.5536 27.5866 28.4005 28.0774C27.2475 28.5683 25.9684 28.6807 24.7474 28.3985C23.3748 27.9112 22.1632 27.0548 21.2457 25.9235C20.2311 24.6757 18.9466 23.6744 17.4891 22.9948C16.0315 22.3153 14.4387 21.9752 12.8307 22.0001C10.6607 21.8465 8.51247 22.5158 6.81374 23.8747C5.11501 25.2337 3.99047 27.1827 3.66406 29.3335C4.29529 28.2449 5.25981 27.3881 6.41522 26.8896C7.57064 26.3912 8.85571 26.2774 10.0807 26.5651Z" fill="black"/>
</svg>
