<svg width="44" height="44" viewBox="0 0 44 44" fill="none" xmlns="http://www.w3.org/2000/svg">
<g clip-path="url(#clip0_415_77)">
<path d="M43.5727 18.1466C43.4507 18.0444 42.3481 17.2065 39.9814 17.2065C39.359 17.2101 38.7378 17.2647 38.1243 17.3698C37.6757 14.2416 35.0838 12.7291 34.9816 12.6432L34.3491 12.2754L33.9409 12.8684C33.4262 13.6734 33.047 14.5574 32.8185 15.4852C32.3888 17.2641 32.6552 18.9398 33.5533 20.3707C32.4713 20.9843 30.7173 21.127 30.3495 21.1441H1.37227C1.1917 21.144 1.01288 21.1796 0.846126 21.2489C0.679371 21.3182 0.527971 21.4198 0.400645 21.5478C0.273319 21.6759 0.172583 21.8279 0.104239 21.995C0.0358947 22.1621 0.00129307 22.3411 0.00242666 22.5217C-0.0364996 25.0657 0.393185 27.5952 1.27 29.9837C2.27032 32.6005 3.75961 34.547 5.6743 35.7277C7.84165 37.0563 11.372 37.8126 15.3509 37.8126C17.151 37.8126 18.9474 37.6484 20.7177 37.3219C23.1857 36.8743 25.5596 36.0104 27.7379 34.767C29.5312 33.725 31.1439 32.3996 32.5134 30.8422C34.8191 28.246 36.1864 25.3422 37.1867 22.7641H37.5949C40.1052 22.7641 41.6563 21.762 42.5131 20.9035C43.0818 20.3645 43.5274 19.7091 43.8194 18.982L44.0033 18.4509L43.5727 18.1466Z" fill="black"/>
<path d="M4.0625 20.313H7.93914C8.03031 20.313 8.11774 20.2768 8.18221 20.2124C8.24667 20.1479 8.28289 20.0605 8.28289 19.9693V16.4905C8.28289 16.3994 8.24667 16.3119 8.18221 16.2475C8.11774 16.183 8.03031 16.1468 7.93914 16.1468H4.0625C3.97133 16.1468 3.8839 16.183 3.81943 16.2475C3.75497 16.3119 3.71875 16.3994 3.71875 16.4905V19.9659C3.72215 20.0559 3.75946 20.1414 3.8232 20.2052C3.88695 20.2689 3.97242 20.3062 4.0625 20.3096M9.40867 20.313H13.2862C13.3773 20.313 13.4648 20.2768 13.5292 20.2124C13.5937 20.1479 13.6299 20.0605 13.6299 19.9693V16.4905C13.6299 16.3994 13.5937 16.3119 13.5292 16.2475C13.4648 16.183 13.3773 16.1468 13.2862 16.1468H9.40867C9.3175 16.1468 9.23007 16.183 9.1656 16.2475C9.10114 16.3119 9.06492 16.3994 9.06492 16.4905V19.9659C9.06832 20.0559 9.10563 20.1414 9.16938 20.2052C9.23312 20.2689 9.31859 20.3062 9.40867 20.3096M14.8571 20.313H18.7329C18.8241 20.313 18.9115 20.2768 18.976 20.2124C19.0404 20.1479 19.0766 20.0605 19.0766 19.9693V16.4905C19.0766 16.3994 19.0404 16.3119 18.976 16.2475C18.9115 16.183 18.8241 16.1468 18.7329 16.1468H14.8571C14.7659 16.1468 14.6785 16.183 14.614 16.2475C14.5496 16.3119 14.5134 16.3994 14.5134 16.4905V19.9659C14.5118 20.0114 14.5196 20.0568 14.5364 20.0992C14.5531 20.1416 14.5783 20.1802 14.6106 20.2124C14.6428 20.2446 14.6813 20.2699 14.7237 20.2866C14.7662 20.3033 14.8115 20.3112 14.8571 20.3096M20.2248 20.313H24.1023C24.1934 20.313 24.2809 20.2768 24.3453 20.2124C24.4098 20.1479 24.446 20.0605 24.446 19.9693V16.4905C24.446 16.3994 24.4098 16.3119 24.3453 16.2475C24.2809 16.183 24.1934 16.1468 24.1023 16.1468H20.2248C20.1336 16.1468 20.0462 16.183 19.9817 16.2475C19.9172 16.3119 19.881 16.3994 19.881 16.4905V19.9659C19.881 20.057 19.9172 20.1445 19.9817 20.2089C20.0462 20.2734 20.1336 20.3096 20.2248 20.3096M9.40867 15.3459H13.2862C13.3763 15.3425 13.4617 15.3051 13.5255 15.2414C13.5892 15.1777 13.6265 15.0922 13.6299 15.0021V11.5234C13.6299 11.4322 13.5937 11.3448 13.5292 11.2803C13.4648 11.2158 13.3773 11.1796 13.2862 11.1796H9.40867C9.3175 11.1796 9.23007 11.2158 9.1656 11.2803C9.10114 11.3448 9.06492 11.4322 9.06492 11.5234V14.9987C9.07165 15.0876 9.11003 15.1712 9.1731 15.2342C9.23616 15.2973 9.31974 15.3357 9.40867 15.3424M14.8571 15.3459H18.7329C18.823 15.3425 18.9084 15.3051 18.9722 15.2414C19.0359 15.1777 19.0732 15.0922 19.0766 15.0021V11.5234C19.0766 11.4322 19.0404 11.3448 18.976 11.2803C18.9115 11.2158 18.8241 11.1796 18.7329 11.1796H14.8571C14.7659 11.1796 14.6785 11.2158 14.614 11.2803C14.5496 11.3448 14.5134 11.4322 14.5134 11.5234V14.9987C14.5134 15.0898 14.5496 15.1773 14.614 15.2417C14.6785 15.3062 14.7659 15.3424 14.8571 15.3424M20.2248 15.3459H24.1023C24.1923 15.3425 24.2778 15.3051 24.3416 15.2414C24.4053 15.1777 24.4426 15.0922 24.446 15.0021V11.5234C24.4426 11.4333 24.4053 11.3478 24.3416 11.2841C24.2778 11.2203 24.1923 11.183 24.1023 11.1796H20.2248C20.1336 11.1796 20.0462 11.2158 19.9817 11.2803C19.9172 11.3448 19.881 11.4322 19.881 11.5234V14.9987C19.8844 15.0888 19.9217 15.1742 19.9855 15.238C20.0492 15.3017 20.1347 15.339 20.2248 15.3424M20.2248 10.358H24.1023C24.1934 10.358 24.2809 10.3218 24.3453 10.2574C24.4098 10.1929 24.446 10.1055 24.446 10.0143V6.53125C24.4426 6.44117 24.4053 6.3557 24.3416 6.29195C24.2778 6.22821 24.1923 6.1909 24.1023 6.1875H20.2248C20.1336 6.1875 20.0462 6.22372 19.9817 6.28818C19.9172 6.35265 19.881 6.44008 19.881 6.53125V10.0066C19.8846 10.0966 19.922 10.1819 19.9857 10.2456C20.0494 10.3093 20.1348 10.3467 20.2248 10.3503M25.632 20.313H29.5095C29.6006 20.313 29.6881 20.2768 29.7525 20.2124C29.817 20.1479 29.8532 20.0605 29.8532 19.9693V16.4905C29.8532 16.3994 29.817 16.3119 29.7525 16.2475C29.6881 16.183 29.6006 16.1468 29.5095 16.1468H25.632C25.5408 16.1468 25.4533 16.183 25.3889 16.2475C25.3244 16.3119 25.2882 16.3994 25.2882 16.4905V19.9659C25.2916 20.0559 25.3289 20.1414 25.3927 20.2052C25.4564 20.2689 25.5419 20.3062 25.632 20.3096" fill="black"/>
</g>
<defs>
<clipPath id="clip0_415_77">
<rect width="44" height="44" fill="white"/>
</clipPath>
</defs>
</svg>
