<svg width="62" height="38" viewBox="0 0 62 38" fill="none" xmlns="http://www.w3.org/2000/svg">
<g clip-path="url(#clip0_415_241)">
<path d="M14.6294 9.90722H26.3232V10.8511H15.7013V17.9552H25.6897V18.899H15.7013V26.6986H26.445V27.6425H14.6294V9.90722ZM27.3707 9.90722H28.6132L34.119 17.7068L39.7466 9.90722L47.4011 0L34.8255 18.5265L41.3058 27.6425H40.0146L34.119 19.3462L28.199 27.6425H26.9322L33.4612 18.5265L27.3707 9.90722ZM41.7687 10.8511V9.90722H55.0947V10.8511H48.9555V27.6425H47.8835V10.8511H41.7687ZM0 9.90722H1.33991L19.8165 37.9857L12.181 27.6425L1.12065 11.2485L1.07193 27.6425H0V9.90722ZM54.9867 26.4137C54.7677 26.4137 54.6034 26.2414 54.6034 26.0187C54.6034 25.796 54.7677 25.6237 54.9867 25.6237C55.2083 25.6237 55.37 25.796 55.37 26.0187C55.37 26.2414 55.2083 26.4137 54.9867 26.4137ZM56.04 25.3745H56.6136C56.6214 25.69 56.8482 25.9021 57.1819 25.9021C57.5548 25.9021 57.7659 25.6741 57.7659 25.2472V22.543H58.35V25.2499C58.35 26.0187 57.912 26.4615 57.1872 26.4615C56.5067 26.4615 56.04 26.032 56.04 25.3745ZM59.1139 25.34H59.6926C59.7422 25.7032 60.0915 25.9339 60.5947 25.9339C61.064 25.9339 61.4082 25.6873 61.4082 25.348C61.4082 25.0563 61.1892 24.8814 60.6912 24.7621L60.2063 24.6428C59.5258 24.481 59.2155 24.147 59.2155 23.5849C59.2155 22.9036 59.763 22.4502 60.5843 22.4502C61.3482 22.4502 61.9061 22.9036 61.94 23.5478H61.3717C61.3169 23.1952 61.0145 22.9752 60.5765 22.9752C60.115 22.9752 59.8074 23.2005 59.8074 23.5452C59.8074 23.8182 60.0055 23.9747 60.4957 24.0913L60.9102 24.1947C61.6819 24.3776 62 24.6958 62 25.2711C62 26.0028 61.4421 26.4615 60.5504 26.4615C59.7161 26.4615 59.1556 26.024 59.1139 25.34Z" fill="black"/>
<rect x="53.8438" y="21.4785" width="8.1579" height="7.43478" fill="white"/>
</g>
<defs>
<clipPath id="clip0_415_241">
<rect width="62" height="38" fill="white"/>
</clipPath>
</defs>
</svg>
