<svg width="44" height="44" viewBox="0 0 44 44" fill="none" xmlns="http://www.w3.org/2000/svg">
<path d="M31.627 16.5C32.7814 15.6342 33.6341 14.4272 34.0643 13.0499C34.4945 11.6726 34.4805 10.1948 34.0242 8.82593C33.5679 7.45704 32.6925 6.26641 31.5219 5.42271C30.3513 4.57901 28.945 4.125 27.502 4.125H15.127C13.6841 4.125 12.2777 4.57901 11.1071 5.42271C9.93657 6.26641 9.06113 7.45704 8.60483 8.82593C8.14853 10.1948 8.13451 11.6726 8.56475 13.0499C8.99498 14.4272 9.84767 15.6342 11.002 16.5C10.128 17.155 9.42263 18.0088 8.94431 18.9908C8.466 19.9727 8.22851 21.0544 8.25153 22.1464C8.27454 23.2384 8.5574 24.3091 9.07666 25.27C9.59593 26.2309 10.3367 27.0543 11.2375 27.6719C10.2128 28.4509 9.40398 29.4786 8.88751 30.6576C8.37103 31.8366 8.16404 33.1279 8.28612 34.4093C8.4082 35.6907 8.85533 36.9197 9.58515 37.9799C10.315 39.0402 11.3033 39.8967 12.4567 40.4682C13.61 41.0397 14.8901 41.3074 16.1758 41.2459C17.4615 41.1844 18.7103 40.7958 19.8038 40.1168C20.8973 39.4378 21.7994 38.4909 22.4247 37.3658C23.05 36.2407 23.3778 34.9747 23.377 33.6875V27.5C24.0993 28.0417 24.9212 28.4358 25.7958 28.6599C26.6704 28.884 27.5805 28.9336 28.4743 28.8059C29.3681 28.6782 30.2279 28.3758 31.0048 27.9158C31.7817 27.4558 32.4603 26.8473 33.002 26.125C33.5437 25.4027 33.9379 24.5808 34.1619 23.7062C34.386 22.8317 34.4356 21.9215 34.3079 21.0277C34.1802 20.134 33.8778 19.2741 33.4178 18.4972C32.9578 17.7204 32.3493 17.0417 31.627 16.5ZM31.627 11C31.627 12.094 31.1924 13.1432 30.4188 13.9168C29.6453 14.6904 28.596 15.125 27.502 15.125H23.377V6.875H27.502C28.596 6.875 29.6453 7.3096 30.4188 8.08318C31.1924 8.85677 31.627 9.90598 31.627 11ZM11.002 11C11.002 9.90598 11.4366 8.85677 12.2102 8.08318C12.9838 7.3096 14.033 6.875 15.127 6.875H20.627V15.125H15.127C14.033 15.125 12.9838 14.6904 12.2102 13.9168C11.4366 13.1432 11.002 12.094 11.002 11ZM15.127 26.125C14.033 26.125 12.9838 25.6904 12.2102 24.9168C11.4366 24.1432 11.002 23.094 11.002 22C11.002 20.906 11.4366 19.8568 12.2102 19.0832C12.9838 18.3096 14.033 17.875 15.127 17.875H20.627V26.125H15.127ZM20.627 33.6875C20.627 34.6393 20.3448 35.5698 19.816 36.3612C19.2872 37.1526 18.5356 37.7694 17.6562 38.1337C16.7768 38.4979 15.8092 38.5932 14.8757 38.4075C13.9421 38.2218 13.0846 37.7635 12.4116 37.0905C11.7385 36.4174 11.2802 35.5599 11.0945 34.6264C10.9088 33.6928 11.0041 32.7252 11.3684 31.8458C11.7326 30.9665 12.3494 30.2149 13.1408 29.6861C13.9323 29.1572 14.8627 28.875 15.8145 28.875H20.627V33.6875ZM27.502 26.125C26.6862 26.125 25.8887 25.8831 25.2103 25.4298C24.5319 24.9766 24.0032 24.3323 23.691 23.5786C23.3788 22.8248 23.2971 21.9954 23.4563 21.1953C23.6155 20.3951 24.0083 19.6601 24.5852 19.0832C25.1621 18.5063 25.8971 18.1134 26.6973 17.9543C27.4975 17.7951 28.3269 17.8768 29.0806 18.189C29.8343 18.5012 30.4786 19.0299 30.9318 19.7083C31.3851 20.3866 31.627 21.1842 31.627 22C31.627 23.094 31.1924 24.1432 30.4188 24.9168C29.6453 25.6904 28.596 26.125 27.502 26.125Z" fill="black"/>
</svg>
