<svg width="108" height="108" viewBox="0 0 108 108" fill="none" xmlns="http://www.w3.org/2000/svg">
<g clip-path="url(#clip0_1_2)">
<path d="M108 54C108 83.8234 83.8234 108 54 108C24.1766 108 0 83.8234 0 54C0 24.1766 24.1766 0 54 0C83.8234 0 108 24.1766 108 54Z" fill="#647DFF"/>
<path d="M8.20753 72.1453C7.90511 71.5556 7.74248 70.9625 7.71965 70.3658C7.69683 69.7691 7.78708 69.2089 7.9904 68.685C8.20204 68.1569 8.50003 67.7051 8.88437 67.3296L9.68074 68.054C9.16033 68.5937 8.85117 69.1771 8.75326 69.8042C8.66365 70.4271 8.78071 71.0541 9.10444 71.6852C9.3089 72.0839 9.55008 72.4007 9.82799 72.6358C10.1185 72.8749 10.4226 73.0179 10.7403 73.0647C11.058 73.1115 11.3705 73.0562 11.6778 72.8986C12.1345 72.6643 12.4236 72.3587 12.5449 71.9817C12.6663 71.6048 12.6742 71.1498 12.5685 70.6165L12.2106 68.6917C12.0651 67.9377 12.125 67.2671 12.3903 66.68C12.6598 66.1012 13.0811 65.6648 13.6542 65.3709C14.1441 65.1196 14.6377 65.0185 15.135 65.0677C15.6405 65.1126 16.1077 65.2873 16.5366 65.5918C16.9698 65.9045 17.3227 66.3267 17.5953 66.8582C17.8807 67.4146 18.0324 67.9661 18.0506 68.5128C18.0813 69.0634 18.0093 69.5776 17.8348 70.0553C17.6602 70.5329 17.4035 70.9425 17.0647 71.2841L16.2687 70.591C16.7145 70.1106 16.97 69.5862 17.0352 69.0178C17.1046 68.4578 16.9944 67.8954 16.7048 67.3307C16.5216 66.9736 16.2975 66.6899 16.0323 66.4798C15.7715 66.2779 15.4864 66.1619 15.1772 66.1317C14.868 66.1015 14.5556 66.1673 14.24 66.3291C13.858 66.5251 13.5751 66.8223 13.3914 67.2207C13.216 67.6149 13.1813 68.0995 13.2874 68.6744L13.6053 70.368C13.7642 71.2095 13.7361 71.9215 13.5208 72.5039C13.3056 73.0864 12.8907 73.5352 12.2761 73.8504C11.7778 74.106 11.2717 74.203 10.7576 74.1415C10.2561 74.084 9.78028 73.8823 9.33008 73.5363C8.88414 73.1986 8.50996 72.7349 8.20753 72.1453Z" fill="white"/>
<path d="M16.4944 83.8563C15.9941 83.3147 15.6808 82.7211 15.5545 82.0754C15.4281 81.4297 15.4733 80.7908 15.6898 80.1588C15.9133 79.5203 16.2992 78.9478 16.8477 78.4411C17.3962 77.9345 17.994 77.5982 18.6413 77.4323C19.2885 77.2664 19.9255 77.2751 20.5523 77.4585C21.186 77.6355 21.753 77.9948 22.2533 78.5364C22.5699 78.8792 22.8059 79.2584 22.9612 79.6741C23.1164 80.0898 23.1954 80.5123 23.1982 80.9417C23.2079 81.3648 23.1294 81.7613 22.9629 82.1312L21.957 81.7644C22.1251 81.3549 22.1719 80.9242 22.0973 80.4721C22.0228 80.02 21.8177 79.6123 21.482 79.2489C21.1464 78.8856 20.7498 78.642 20.2924 78.5182C19.8481 78.3949 19.3857 78.3964 18.9052 78.5227C18.4378 78.6495 18.0019 78.8997 17.5974 79.2733C17.1998 79.6407 16.9158 80.0554 16.7456 80.5176C16.5886 80.9803 16.5505 81.4412 16.6314 81.9001C16.7186 82.3659 16.93 82.7805 17.2657 83.1438C17.6014 83.5072 17.9884 83.7405 18.4268 83.8437C18.8716 83.9538 19.3148 83.9384 19.7563 83.7973L20.0217 84.8481C19.6467 84.9786 19.2453 85.0254 18.8174 84.9886C18.3895 84.9519 17.9746 84.8397 17.5725 84.652C17.1705 84.4643 16.8111 84.1991 16.4944 83.8563Z" fill="white"/>
<path d="M24.178 90.3873L28.415 84.194L29.2816 84.7869L28.586 85.8037L28.5732 85.5744C28.9198 85.3819 29.2975 85.301 29.7061 85.3318C30.1225 85.3678 30.5425 85.5308 30.9662 85.8206L31.3591 86.0894L30.7662 86.956L30.2231 86.5845C29.7763 86.2788 29.3233 86.1724 28.8639 86.2653C28.4046 86.3581 28.001 86.6588 27.6532 87.1672L25.0446 90.9802L24.178 90.3873Z" fill="white"/>
<path d="M35.9153 96.8785C35.2528 96.6249 34.7115 96.2377 34.2912 95.7171C33.8742 95.1877 33.6096 94.5867 33.4973 93.9141C33.3971 93.2361 33.4821 92.5441 33.7524 91.838C34.0194 91.1407 34.4149 90.5776 34.9389 90.1486C35.4629 89.7196 36.0509 89.4499 36.7027 89.3397C37.3666 89.2241 38.0385 89.2964 38.7183 89.5567C39.3982 89.817 39.9439 90.2058 40.3555 90.7232C40.7758 91.2438 41.0334 91.8372 41.1282 92.5031C41.2318 93.1723 41.1484 93.86 40.8781 94.566C40.6045 95.2808 40.1996 95.8553 39.6635 96.2897C39.1308 96.7154 38.5342 96.9817 37.8736 97.0886C37.2218 97.1988 36.569 97.1288 35.9153 96.8785ZM36.2907 95.8979C36.7614 96.0781 37.2292 96.1223 37.6941 96.0304C38.1677 95.9419 38.5919 95.7345 38.9666 95.4083C39.3501 95.0854 39.6386 94.6711 39.8321 94.1656C40.0257 93.66 40.0859 93.1634 40.0128 92.6757C39.9484 92.1913 39.7694 91.758 39.476 91.3759C39.1913 90.997 38.8136 90.7175 38.3429 90.5373C37.8722 90.3571 37.4001 90.3113 36.9265 90.3998C36.4616 90.4916 36.039 90.6947 35.6589 91.0089C35.2788 91.3231 34.992 91.7329 34.7984 92.2385C34.6049 92.744 34.543 93.245 34.6128 93.7415C34.6826 94.2379 34.8598 94.6755 35.1445 95.0544C35.4379 95.4365 35.82 95.7177 36.2907 95.8979Z" fill="white"/>
<path d="M46.4928 99.5215L47.9782 89.0281L49.0179 89.1753L47.5324 99.6687L46.4928 99.5215Z" fill="white"/>
<path d="M55.2321 100.138L54.9341 89.5443L55.9836 89.5147L56.2817 100.109L55.2321 100.138Z" fill="white"/>
<path d="M71.6709 97.3142L67.605 87.5272L68.5746 87.1244L70.3203 91.3262L70.079 91.3658C70.0652 90.846 70.1985 90.3762 70.4789 89.9565C70.768 89.5332 71.1711 89.2142 71.6882 88.9993C72.1795 88.7952 72.6656 88.7246 73.1466 88.7876C73.6362 88.847 74.0754 89.0284 74.4642 89.3317C74.858 89.6229 75.157 90.0142 75.3611 90.5055L77.2303 95.0046L76.2606 95.4075L74.5472 91.2832C74.3718 90.8609 74.1456 90.5354 73.8687 90.3068C73.5918 90.0782 73.2832 89.9436 72.943 89.9031C72.6077 89.8503 72.2677 89.8956 71.923 90.0388C71.5782 90.182 71.3019 90.3928 71.0942 90.6712C70.8828 90.9409 70.7579 91.2606 70.7195 91.6303C70.6861 91.9878 70.7553 92.3734 70.9272 92.7871L72.6406 96.9114L71.6709 97.3142Z" fill="white"/>
<path d="M86.6461 89.2256C86.0915 89.6527 85.4862 89.9068 84.8301 89.988C84.1757 90.0561 83.5369 89.9532 82.9136 89.6792C82.2903 89.4053 81.7481 88.9688 81.2868 88.3698C80.8255 87.7709 80.544 87.1453 80.4424 86.4933C80.335 85.8338 80.3933 85.2058 80.6172 84.6093C80.8485 84.0071 81.234 83.4981 81.7738 83.0824C82.2027 82.7521 82.6462 82.5402 83.1042 82.4466C83.564 82.3399 84.0175 82.3323 84.4648 82.4236C84.9065 82.5076 85.3211 82.6713 85.7088 82.9146C86.0908 83.1506 86.4184 83.446 86.6918 83.801C86.7487 83.8749 86.8105 83.9628 86.8772 84.0646C86.9381 84.1591 86.9982 84.26 87.0574 84.3675L82.0328 88.2371L81.4348 87.4607L85.9825 83.9584L85.8395 84.5987C85.5928 84.1407 85.2657 83.8154 84.8582 83.6227C84.4523 83.417 84.0303 83.3355 83.5921 83.3784C83.1483 83.414 82.7415 83.5741 82.3718 83.8588C82.002 84.1436 81.7322 84.5045 81.5623 84.9417C81.3998 85.3731 81.3636 85.8309 81.4538 86.3151C81.5383 86.792 81.7813 87.2528 82.1827 87.6976C82.5102 88.1993 82.903 88.5565 83.3612 88.769C83.8212 88.9685 84.2878 89.0391 84.7613 88.9808C85.2421 88.9168 85.6711 88.7396 86.0482 88.4491C86.4845 88.1132 86.7708 87.7277 86.9071 87.2929C87.0434 86.8581 87.0845 86.4142 87.0301 85.9612L88.0305 85.7917C88.1172 86.149 88.1268 86.5362 88.0593 86.9534C87.9861 87.3632 87.8335 87.7693 87.6016 88.1717C87.3713 88.5611 87.0528 88.9124 86.6461 89.2256Z" fill="white"/>
<path d="M93.8492 82.1483L88.0596 77.3744L88.7276 76.5643L89.6781 77.3481L89.4486 77.3403C89.2878 76.9778 89.241 76.5945 89.3082 76.1902C89.3814 75.7787 89.5812 75.375 89.9078 74.9789L90.2106 74.6117L91.0207 75.2797L90.6021 75.7873C90.2577 76.205 90.1112 76.6467 90.1627 77.1125C90.2141 77.5783 90.4774 78.0072 90.9527 78.399L94.5172 81.3382L93.8492 82.1483Z" fill="white"/>
<path d="M101.307 71.1587C100.993 71.7845 100.559 72.2766 100.003 72.6351C99.4437 72.981 98.8237 73.1662 98.1433 73.1907C97.4629 73.2151 96.7848 73.058 96.1089 72.7193C95.433 72.3806 94.9075 71.9397 94.5323 71.3968C94.1488 70.8496 93.9281 70.2588 93.8702 69.6243C93.8165 68.9815 93.9423 68.3555 94.2476 67.7464C94.4901 67.2624 94.7972 66.8787 95.169 66.5952C95.5365 66.2991 95.9416 66.095 96.3842 65.9827C96.8184 65.8662 97.2629 65.8332 97.7178 65.8837C98.1644 65.93 98.588 66.0535 98.9885 66.2542C99.0719 66.2961 99.1658 66.3483 99.2701 66.411C99.366 66.4695 99.4641 66.5343 99.5642 66.6054L96.7228 72.2753L95.8467 71.8362L98.4183 66.7045L98.568 67.3433C98.1467 67.0382 97.7107 66.8875 97.2599 66.8913C96.8049 66.8826 96.3895 66.9928 96.0136 67.222C95.6294 67.4471 95.3328 67.7682 95.1237 68.1854C94.9146 68.6026 94.8287 69.045 94.8658 69.5125C94.9071 69.9717 95.0737 70.3997 95.3655 70.7965C95.649 71.1891 96.0682 71.4983 96.6232 71.7242C97.1363 72.0336 97.6454 72.1843 98.1504 72.1764C98.6513 72.156 99.1023 72.0165 99.5032 71.7581C99.9083 71.4913 100.217 71.1452 100.431 70.7196C100.677 70.2273 100.768 69.7557 100.701 69.3049C100.635 68.854 100.479 68.4365 100.233 68.0523L101.06 67.4645C101.293 67.7485 101.47 68.093 101.591 68.498C101.703 68.8988 101.743 69.3309 101.709 69.7941C101.671 70.2449 101.537 70.6997 101.307 71.1587Z" fill="white"/>
<path d="M100.792 34.3612C101.095 34.9508 101.258 35.5439 101.28 36.1406C101.303 36.7373 101.213 37.2976 101.01 37.8214C100.798 38.3496 100.5 38.8014 100.116 39.1768L99.3193 38.4524C99.8397 37.9128 100.149 37.3294 100.247 36.7022C100.336 36.0794 100.219 35.4523 99.8956 34.8212C99.6911 34.4226 99.4499 34.1057 99.172 33.8706C98.8815 33.6315 98.5774 33.4886 98.2597 33.4417C97.942 33.3949 97.6295 33.4503 97.3222 33.6079C96.8655 33.8422 96.5764 34.1478 96.4551 34.5247C96.3337 34.9016 96.3259 35.3567 96.4315 35.8899L96.7894 37.8147C96.9349 38.5687 96.875 39.2393 96.6097 39.8264C96.3402 40.4053 95.9189 40.8416 95.3458 41.1355C94.8559 41.3868 94.3623 41.4879 93.865 41.4388C93.3595 41.3939 92.8923 41.2192 92.4634 40.9147C92.0302 40.6019 91.6773 40.1797 91.4047 39.6482C91.1193 39.0918 90.9676 38.5403 90.9494 37.9937C90.9187 37.443 90.9907 36.9288 91.1652 36.4512C91.3398 35.9735 91.5965 35.5639 91.9353 35.2223L92.7313 35.9154C92.2855 36.3958 92.03 36.9202 91.9648 37.4886C91.8954 38.0487 92.0056 38.611 92.2952 39.1758C92.4784 39.5329 92.7025 39.8165 92.9677 40.0267C93.2285 40.2285 93.5136 40.3445 93.8228 40.3748C94.132 40.405 94.4444 40.3392 94.76 40.1773C95.142 39.9814 95.4249 39.6842 95.6086 39.2857C95.784 38.8916 95.8187 38.407 95.7126 37.832L95.3947 36.1385C95.2358 35.2969 95.2639 34.5849 95.4792 34.0025C95.6944 33.4201 96.1093 32.9713 96.7239 32.6561C97.2222 32.4005 97.7283 32.3034 98.2424 32.365C98.7439 32.4224 99.2197 32.6242 99.6699 32.9702C100.116 33.3079 100.49 33.7715 100.792 34.3612Z" fill="white"/>
<path d="M92.5056 22.6501C93.0059 23.1917 93.3192 23.7854 93.4455 24.431C93.5719 25.0767 93.5267 25.7156 93.3102 26.3477C93.0867 26.9861 92.7008 27.5586 92.1523 28.0653C91.6038 28.5719 91.006 28.9082 90.3587 29.0741C89.7115 29.24 89.0745 29.2313 88.4477 29.0479C87.814 28.8709 87.247 28.5116 86.7467 27.97C86.4301 27.6272 86.1941 27.248 86.0388 26.8323C85.8836 26.4167 85.8046 25.9941 85.8018 25.5647C85.7921 25.1416 85.8706 24.7451 86.0371 24.3753L87.043 24.7421C86.8749 25.1515 86.8281 25.5823 86.9027 26.0343C86.9772 26.4864 87.1823 26.8942 87.518 27.2575C87.8536 27.6209 88.2502 27.8644 88.7076 27.9882C89.1519 28.1115 89.6143 28.11 90.0948 27.9838C90.5622 27.857 90.9981 27.6068 91.4026 27.2331C91.8002 26.8658 92.0842 26.451 92.2544 25.9888C92.4114 25.5261 92.4495 25.0653 92.3686 24.6063C92.2814 24.1405 92.07 23.7259 91.7343 23.3626C91.3986 22.9992 91.0116 22.7659 90.5732 22.6627C90.1284 22.5526 89.6852 22.5681 89.2437 22.7091L88.9783 21.6583C89.3533 21.5279 89.7547 21.481 90.1826 21.5178C90.6105 21.5546 91.0254 21.6668 91.4275 21.8544C91.8295 22.0421 92.1889 22.3073 92.5056 22.6501Z" fill="white"/>
<path d="M84.822 16.1191L80.585 22.3124L79.7184 21.7195L80.414 20.7027L80.4268 20.932C80.0802 21.1246 79.7025 21.2055 79.2939 21.1747C78.8775 21.1386 78.4575 20.9757 78.0338 20.6858L77.6409 20.4171L78.2338 19.5505L78.7769 19.922C79.2237 20.2276 79.6767 20.334 80.1361 20.2412C80.5954 20.1483 80.999 19.8477 81.3468 19.3393L83.9554 15.5262L84.822 16.1191Z" fill="white"/>
<path d="M73.0847 9.62794C73.7472 9.88155 74.2886 10.2687 74.7088 10.7894C75.1258 11.3188 75.3904 11.9198 75.5027 12.5924C75.6029 13.2704 75.5179 13.9624 75.2476 14.6684C74.9806 15.3657 74.5851 15.9289 74.0611 16.3579C73.5371 16.7869 72.9492 17.0565 72.2973 17.1667C71.6334 17.2823 70.9616 17.21 70.2817 16.9497C69.6018 16.6894 69.0561 16.3006 68.6445 15.7833C68.2242 15.2626 67.9667 14.6693 67.8718 14.0034C67.7683 13.3341 67.8516 12.6464 68.1219 11.9404C68.3955 11.2257 68.8004 10.6511 69.3365 10.2167C69.8692 9.79106 70.4658 9.52478 71.1264 9.41788C71.7782 9.30765 72.431 9.37767 73.0847 9.62794ZM72.7093 10.6085C72.2386 10.4283 71.7709 10.3842 71.3059 10.476C70.8323 10.5645 70.4081 10.7719 70.0334 11.0982C69.6499 11.4211 69.3614 11.8353 69.1679 12.3409C68.9743 12.8464 68.9141 13.343 68.9873 13.8308C69.0517 14.3151 69.2306 14.7484 69.524 15.1306C69.8087 15.5094 70.1864 15.7889 70.6571 15.9691C71.1278 16.1493 71.5999 16.1952 72.0736 16.1066C72.5385 16.0148 72.961 15.8118 73.3411 15.4976C73.7212 15.1834 74.0081 14.7735 74.2016 14.268C74.3951 13.7624 74.457 13.2614 74.3872 12.765C74.3175 12.2686 74.1402 11.8309 73.8555 11.4521C73.5621 11.0699 73.18 10.7887 72.7093 10.6085Z" fill="white"/>
<path d="M62.5072 6.98495L61.0218 17.4783L59.9821 17.3312L61.4676 6.83778L62.5072 6.98495Z" fill="white"/>
<path d="M53.7679 6.36835L54.0659 16.9622L53.0164 16.9917L52.7183 6.39788L53.7679 6.36835Z" fill="white"/>
<path d="M37.3291 9.19221L41.395 18.9792L40.4254 19.3821L38.6797 15.1802L38.921 15.1406C38.9348 15.6604 38.8015 16.1302 38.5211 16.5499C38.232 16.9732 37.8289 17.2923 37.3118 17.5071C36.8205 17.7112 36.3344 17.7818 35.8534 17.7188C35.3638 17.6594 34.9246 17.4781 34.5358 17.1747C34.142 16.8835 33.843 16.4923 33.6389 16.001L31.7697 11.5018L32.7394 11.099L34.4528 15.2232C34.6282 15.6456 34.8544 15.971 35.1313 16.1996C35.4082 16.4282 35.7168 16.5628 36.057 16.6033C36.3923 16.6561 36.7323 16.6109 37.077 16.4676C37.4218 16.3244 37.6981 16.1136 37.9058 15.8353C38.1172 15.5655 38.2421 15.2458 38.2805 14.8761C38.3139 14.5186 38.2447 14.133 38.0728 13.7193L36.3594 9.59504L37.3291 9.19221Z" fill="white"/>
<path d="M22.3539 17.2808C22.9085 16.8537 23.5138 16.5996 24.1699 16.5184C24.8243 16.4503 25.4631 16.5533 26.0864 16.8272C26.7097 17.1012 27.2519 17.5376 27.7132 18.1366C28.1745 18.7355 28.456 19.3611 28.5576 20.0132C28.665 20.6727 28.6067 21.3006 28.3828 21.8972C28.1515 22.4993 27.766 23.0083 27.2262 23.424C26.7973 23.7543 26.3538 23.9663 25.8958 24.0598C25.436 24.1665 24.9825 24.1742 24.5352 24.0828C24.0935 23.9988 23.6789 23.8351 23.2912 23.5918C22.9092 23.3558 22.5816 23.0604 22.3082 22.7055C22.2513 22.6315 22.1895 22.5436 22.1228 22.4418C22.0619 22.3474 22.0018 22.2464 21.9426 22.1389L26.9672 18.2693L27.5652 19.0457L23.0175 22.548L23.1605 21.9077C23.4072 22.3657 23.7343 22.691 24.1418 22.8837C24.5477 23.0895 24.9697 23.1709 25.4079 23.128C25.8517 23.0924 26.2585 22.9323 26.6282 22.6476C26.998 22.3628 27.2678 22.0019 27.4377 21.5648C27.6002 21.1333 27.6364 20.6755 27.5462 20.1913C27.4617 19.7144 27.2187 19.2536 26.8173 18.8089C26.4898 18.3071 26.097 17.95 25.6388 17.7374C25.1788 17.5379 24.7122 17.4673 24.2387 17.5256C23.7579 17.5896 23.3289 17.7668 22.9518 18.0573C22.5155 18.3933 22.2292 18.7787 22.0929 19.2135C21.9566 19.6484 21.9155 20.0923 21.9699 20.5452L20.9695 20.7148C20.8828 20.3574 20.8732 19.9702 20.9407 19.553C21.0139 19.1433 21.1665 18.7372 21.3984 18.3347C21.6287 17.9453 21.9472 17.594 22.3539 17.2808Z" fill="white"/>
<path d="M15.1508 24.3581L20.9404 29.132L20.2724 29.9421L19.3219 29.1584L19.5514 29.1661C19.7122 29.5286 19.759 29.912 19.6918 30.3162C19.6186 30.7277 19.4188 31.1315 19.0922 31.5275L18.7894 31.8948L17.9793 31.2268L18.3979 30.7191C18.7423 30.3014 18.8888 29.8597 18.8373 29.3939C18.7859 28.9281 18.5226 28.4993 18.0473 28.1074L14.4828 25.1682L15.1508 24.3581Z" fill="white"/>
<path d="M7.69312 35.3478C8.00673 34.7219 8.44127 34.2298 8.99673 33.8713C9.55636 33.5254 10.1764 33.3402 10.8567 33.3158C11.5371 33.2913 12.2153 33.4485 12.8911 33.7872C13.567 34.1259 14.0926 34.5667 14.4677 35.1097C14.8512 35.6568 15.0719 36.2476 15.1298 36.8821C15.1835 37.525 15.0577 38.151 14.7524 38.7601C14.5099 39.244 14.2028 39.6278 13.831 39.9113C13.4635 40.2073 13.0584 40.4115 12.6159 40.5238C12.1817 40.6402 11.7371 40.6732 11.2822 40.6227C10.8356 40.5764 10.4121 40.4529 10.0115 40.2522C9.92809 40.2104 9.83423 40.1581 9.72993 40.0954C9.63398 40.0369 9.53595 39.9721 9.43584 39.9011L12.2772 34.2312L13.1533 34.6702L10.5817 39.8019L10.432 39.1632C10.8533 39.4682 11.2893 39.6189 11.7401 39.6151C12.1951 39.6239 12.6105 39.5136 12.9864 39.2844C13.3706 39.0594 13.6672 38.7382 13.8763 38.321C14.0854 37.9038 14.1713 37.4614 14.1342 36.9939C14.0929 36.5347 13.9263 36.1068 13.6345 35.71C13.351 35.3174 12.9318 35.0081 12.3768 34.7822C11.8637 34.4729 11.3546 34.3222 10.8496 34.3301C10.3487 34.3505 9.89776 34.4899 9.49682 34.7483C9.0917 35.0151 8.78252 35.3613 8.56926 35.7868C8.32255 36.2791 8.23239 36.7507 8.29877 37.2016C8.36514 37.6524 8.52129 38.0699 8.76721 38.4542L7.94024 39.042C7.70675 38.7579 7.52966 38.4134 7.40898 38.0084C7.29664 37.6076 7.25738 37.1756 7.29119 36.7123C7.32916 36.2615 7.46313 35.8067 7.69312 35.3478Z" fill="white"/>
</g>
<defs>
<clipPath id="clip0_1_2">
<rect width="108" height="108" fill="white"/>
</clipPath>
</defs>
</svg>
