<svg width="40" height="40" viewBox="0 0 40 40" fill="none" xmlns="http://www.w3.org/2000/svg">
<g clip-path="url(#clip0_415_253)">
<path d="M36.1305 0.868424C34.4105 -0.664909 32.3305 -0.0482423 30.2755 1.77509C29.9587 2.05882 29.6545 2.35632 29.3639 2.66676C25.8489 6.39509 22.5872 13.3001 21.5739 18.5734C21.9689 19.3734 22.2772 20.3951 22.4805 21.1751C22.5824 21.5631 22.6736 21.9538 22.7539 22.3468C22.7539 22.3468 22.7222 22.2284 22.5939 21.8534L22.5105 21.6101C22.4933 21.5652 22.475 21.5207 22.4555 21.4768C22.2255 20.9434 21.5922 19.8184 21.3122 19.3284C21.0739 20.0334 20.8622 20.6918 20.6855 21.2884C21.4922 22.7618 21.9822 25.2884 21.9822 25.2884C21.9822 25.2884 21.9405 25.1234 21.7372 24.5518C21.5589 24.0468 20.6639 22.4784 20.4505 22.1118C20.0889 23.4518 19.9439 24.3551 20.0739 24.5751C20.3272 25.0018 20.5672 25.7384 20.7772 26.5518C21.2539 28.3851 21.5855 30.6184 21.5855 30.6184L21.6139 30.9918C21.5512 32.5189 21.5824 34.0484 21.7072 35.5718C21.8655 37.4818 22.1622 39.1218 22.5405 40.0001L22.7989 39.8601C22.2422 38.1301 22.0155 35.8618 22.1155 33.2484C22.2655 29.2518 23.1855 24.4318 24.8839 19.4084C27.7555 11.8251 31.7389 5.74009 35.3839 2.83342C32.0622 5.83342 27.5639 15.5501 26.2172 19.1468C24.7105 23.1734 23.6422 26.9534 22.9989 30.5751C24.1089 27.1801 27.7005 25.7218 27.7005 25.7218C27.7005 25.7218 29.4622 23.5484 31.5205 20.4451C30.2872 20.7268 28.2622 21.2084 27.5839 21.4934C26.5839 21.9118 26.3139 22.0551 26.3139 22.0551C26.3139 22.0551 29.5555 20.0818 32.3355 19.1884C36.1589 13.1668 40.3255 4.61176 36.1305 0.868424ZM5.17552 1.77342C4.36506 1.7765 3.58869 2.09993 3.01576 2.67318C2.44283 3.24642 2.11982 4.02296 2.11719 4.83342V32.5134C2.11983 33.3236 2.44294 34.0998 3.01597 34.6725C3.58899 35.2452 4.36536 35.5679 5.17552 35.5701H20.8722C20.7545 34.0692 20.7256 32.5627 20.7855 31.0584C20.7755 30.9551 20.7672 30.8234 20.7589 30.7251C20.5555 29.3928 20.2925 28.0704 19.9705 26.7618C19.7689 25.9784 19.5122 25.2651 19.3555 25.0001C19.1622 24.6718 19.1922 24.4834 19.1939 24.2801C19.1939 24.0801 19.2189 23.8718 19.2555 23.6368C19.3543 23.0496 19.4844 22.4682 19.6455 21.8951L20.0072 21.8484C19.9789 21.7901 19.9839 21.7401 19.9555 21.6868L19.8872 21.0518C20.0867 20.3844 20.299 19.721 20.5239 19.0618L20.8572 19.0301C20.8439 19.0034 20.8405 18.9668 20.8272 18.9418L20.7555 18.4151C21.8055 12.9484 25.0672 6.01009 28.7555 2.09676C28.8655 1.98176 28.9772 1.88342 29.0855 1.77342H5.17552Z" fill="black"/>
</g>
<defs>
<clipPath id="clip0_415_253">
<rect width="40" height="40" fill="white"/>
</clipPath>
</defs>
</svg>
