<svg width="44" height="44" viewBox="0 0 44 44" fill="none" xmlns="http://www.w3.org/2000/svg">
<g clip-path="url(#clip0_415_233)">
<path d="M27.5014 14.667L18.3347 20.167L19.8399 19.2595C23.2499 17.1512 27.9285 18.3612 30.0589 21.7382C30.5653 22.541 30.9073 23.4364 31.0649 24.3724C31.2225 25.3084 31.1927 26.2664 30.9771 27.1908C30.7615 28.1153 30.3645 28.9876 29.8091 29.7574C29.2536 30.5271 28.5509 31.1789 27.7415 31.6748L18.4777 37.4058C15.0677 39.516 10.5724 38.4893 8.44202 35.1123C7.93549 34.3096 7.59342 33.4143 7.43565 32.4784C7.27789 31.5424 7.30757 30.5844 7.52298 29.66C7.73838 28.7357 8.13523 27.8632 8.69048 27.0934C9.24573 26.3236 9.94834 25.6718 10.7575 25.1757L11.2342 24.8823" stroke="black" stroke-width="2.66667" stroke-linecap="round" stroke-linejoin="round"/>
<path d="M14.6649 31.1668L23.8316 25.6668L22.3246 26.5761C18.9146 28.6863 14.2377 27.4763 12.1056 24.0993C11.5991 23.2965 11.2572 22.4011 11.0995 21.465C10.9419 20.529 10.9717 19.571 11.1873 18.6466C11.4029 17.7222 11.7999 16.8498 12.3554 16.0801C12.9108 15.3103 13.6136 14.6586 14.4229 14.1626L23.6886 8.42978C27.0986 6.32145 31.5921 7.34811 33.7242 10.7251C34.2307 11.5279 34.5726 12.4233 34.7303 13.3594C34.8879 14.2954 34.8581 15.2534 34.6425 16.1778C34.4269 17.1022 34.0299 17.9746 33.4744 18.7443C32.919 19.5141 32.2162 20.1658 31.4069 20.6618L30.9302 20.9551" stroke="black" stroke-width="2.66667" stroke-linecap="round" stroke-linejoin="round"/>
</g>
<defs>
<clipPath id="clip0_415_233">
<rect width="44" height="44" fill="white"/>
</clipPath>
</defs>
</svg>
