<svg width="33" height="33" viewBox="0 0 33 33" fill="none" xmlns="http://www.w3.org/2000/svg">
<g clip-path="url(#clip0_415_245)">
<path d="M27.5016 17.6001V17.2327C27.5016 15.6135 26.1882 14.3001 24.569 14.3001H22.0016C21.1263 14.3001 20.287 14.6478 19.6681 15.2666C19.0492 15.8855 18.7016 16.7249 18.7016 17.6001C18.7016 18.4753 19.0492 19.3147 19.6681 19.9336C20.287 20.5524 21.1263 20.9001 22.0016 20.9001H24.2016C25.0768 20.9001 25.9161 21.2478 26.535 21.8666C27.1539 22.4855 27.5016 23.3249 27.5016 24.2001C27.5016 25.0753 27.1539 25.9147 26.535 26.5336C25.9161 27.1524 25.0768 27.5001 24.2016 27.5001H22.0016C21.1263 27.5001 20.287 27.1524 19.6681 26.5336C19.0492 25.9147 18.7016 25.0753 18.7016 24.2001M17.6016 14.3001H6.60156M12.1016 14.3001V28.6001M1.10156 1.1001H31.9016V31.9001H1.10156V1.1001Z" stroke="black" stroke-width="2.13333"/>
</g>
<defs>
<clipPath id="clip0_415_245">
<rect width="33" height="33" fill="white"/>
</clipPath>
</defs>
</svg>
