<svg width="40" height="40" viewBox="0 0 40 40" fill="none" xmlns="http://www.w3.org/2000/svg">
<g clip-path="url(#clip0_415_64)">
<path d="M6.66927 12.0002C5.25479 12.0002 3.89823 11.4383 2.89804 10.4381C1.89784 9.43787 1.33594 8.08132 1.33594 6.66683C1.33594 5.25234 1.89784 3.89579 2.89804 2.89559C3.89823 1.8954 5.25479 1.3335 6.66927 1.3335C8.08376 1.3335 9.44032 1.8954 10.4405 2.89559C11.4407 3.89579 12.0026 5.25234 12.0026 6.66683C12.0026 8.08132 11.4407 9.43787 10.4405 10.4381C9.44032 11.4383 8.08376 12.0002 6.66927 12.0002ZM6.66927 12.0002V28.0002M6.66927 28.0002C5.61444 28.0002 4.58329 28.313 3.70623 28.899C2.82917 29.485 2.14558 30.318 1.74192 31.2925C1.33825 32.2671 1.23263 33.3394 1.43842 34.374C1.64421 35.4085 2.15216 36.3589 2.89804 37.1047C3.64392 37.8506 4.59423 38.3586 5.62879 38.5644C6.66336 38.7701 7.73571 38.6645 8.71025 38.2609C9.68479 37.8572 10.5177 37.1736 11.1038 36.2965C11.6898 35.4195 12.0026 34.3883 12.0026 33.3335M6.66927 28.0002C8.08376 28.0002 9.44032 28.5621 10.4405 29.5623C11.4407 30.5625 12.0026 31.919 12.0026 33.3335M12.0026 33.3335H25.3359C27.4577 33.3335 29.4925 32.4906 30.9928 30.9904C32.4931 29.4901 33.3359 27.4552 33.3359 25.3335V20.0002M33.3359 20.0002C31.9215 20.0002 30.5649 19.4383 29.5647 18.4381C28.5645 17.4379 28.0026 16.0813 28.0026 14.6668C28.0026 13.2523 28.5645 11.8958 29.5647 10.8956C30.5649 9.8954 31.9215 9.3335 33.3359 9.3335C34.7504 9.3335 36.107 9.8954 37.1072 10.8956C38.1074 11.8958 38.6693 13.2523 38.6693 14.6668C38.6693 16.0813 38.1074 17.4379 37.1072 18.4381C36.107 19.4383 34.7504 20.0002 33.3359 20.0002Z" stroke="black" stroke-width="2.13333"/>
</g>
<defs>
<clipPath id="clip0_415_64">
<rect width="40" height="40" fill="white"/>
</clipPath>
</defs>
</svg>
