<svg width="38" height="38" viewBox="0 0 38 38" fill="none" xmlns="http://www.w3.org/2000/svg">
<g clip-path="url(#clip0_415_247)">
<path d="M15.199 6.33327H17.7323M11.399 10.1333V3.79994C11.399 3.12805 11.6659 2.48369 12.141 2.0086C12.616 1.53351 13.2604 1.2666 13.9323 1.2666H24.0656C24.7375 1.2666 25.3819 1.53351 25.857 2.0086C26.3321 2.48369 26.599 3.12805 26.599 3.79994V16.4666C26.599 17.1385 26.3321 17.7828 25.857 18.2579C25.3819 18.733 24.7375 18.9999 24.0656 18.9999H13.9323C13.2604 18.9999 12.616 19.2668 12.141 19.7419C11.6659 20.217 11.399 20.8614 11.399 21.5333V34.1999C11.399 34.8718 11.6659 35.5162 12.141 35.9913C12.616 36.4664 13.2604 36.7333 13.9323 36.7333H24.0656C24.7375 36.7333 25.3819 36.4664 25.857 35.9913C26.3321 35.5162 26.599 34.8718 26.599 34.1999V27.8666M20.2656 11.3999H3.79896C3.12708 11.3999 2.48271 11.6668 2.00762 12.1419C1.53253 12.617 1.26563 13.2614 1.26562 13.9333V26.5999C1.26563 27.2718 1.53253 27.9162 2.00762 28.3913C2.48271 28.8664 3.12708 29.1333 3.79896 29.1333H11.399M17.7323 26.5999H34.199C34.8708 26.5999 35.5152 26.333 35.9903 25.8579C36.4654 25.3828 36.7323 24.7385 36.7323 24.0666V11.3999C36.7323 10.7281 36.4654 10.0837 35.9903 9.6086C35.5152 9.13351 34.8708 8.8666 34.199 8.8666H26.599M20.2656 31.6666H22.799" stroke="black" stroke-width="2.13333"/>
</g>
<defs>
<clipPath id="clip0_415_247">
<rect width="38" height="38" fill="white"/>
</clipPath>
</defs>
</svg>
